<?xml version="1.0" encoding="utf-8"?>
<!-- Generator: Adobe Illustrator 23.0.3, SVG Export Plug-In . SVG Version: 6.00 Build 0)  -->
<svg version="1.1" id="Layer_1" xmlns="http://www.w3.org/2000/svg" xmlns:xlink="http://www.w3.org/1999/xlink" x="0px" y="0px"
	 viewBox="0 0 1200 1200" enable-background="new 0 0 1200 1200" xml:space="preserve">
<g>
	<g>
		<g>
			
				<rect x="180.55" y="175.083" transform="matrix(0.032 -0.9995 0.9995 0.032 -1.1571 409.0097)" fill="#2010C2" width="60.038" height="60.038"/>
		</g>
		<g>
			
				<rect x="240.557" y="177.002" transform="matrix(0.032 -0.9995 0.9995 0.032 55.0149 470.8432)" fill="#2010C2" width="60.038" height="60.038"/>
		</g>
		<g>
			
				<rect x="300.564" y="178.92" transform="matrix(0.032 -0.9995 0.9995 0.032 111.1869 532.6766)" fill="#2010C2" width="60.038" height="60.038"/>
		</g>
		<g>
			
				<rect x="360.571" y="180.839" transform="matrix(0.032 -0.9995 0.9995 0.032 167.3589 594.5101)" fill="#2010C2" width="60.038" height="60.038"/>
		</g>
		<g>
			
				<rect x="420.578" y="182.757" transform="matrix(0.032 -0.9995 0.9995 0.032 223.5309 656.3436)" fill="#2010C2" width="60.038" height="60.038"/>
		</g>
		<g>
			
				<rect x="734.732" y="192.801" transform="matrix(0.032 -0.9995 0.9995 0.032 517.6078 980.0601)" fill="#2010C2" width="60.038" height="60.038"/>
		</g>
		<g>
			
				<rect x="794.739" y="194.719" transform="matrix(0.032 -0.9995 0.9995 0.032 573.7798 1041.8936)" fill="#2010C2" width="60.038" height="60.038"/>
		</g>
		<g>
			
				<rect x="854.746" y="196.638" transform="matrix(0.032 -0.9995 0.9995 0.032 629.9518 1103.7271)" fill="#2010C2" width="60.038" height="60.038"/>
		</g>
		<g>
			
				<rect x="914.753" y="198.556" transform="matrix(0.032 -0.9995 0.9995 0.032 686.1238 1165.5605)" fill="#2010C2" width="60.038" height="60.038"/>
		</g>
		<g>
			
				<rect x="974.76" y="200.475" transform="matrix(0.032 -0.9995 0.9995 0.032 742.2957 1227.394)" fill="#2010C2" width="60.038" height="60.038"/>
		</g>
		<g>
			
				<rect x="732.814" y="252.808" transform="matrix(0.032 -0.9995 0.9995 0.032 455.7743 1036.2321)" fill="#2010C2" width="60.038" height="60.038"/>
		</g>
		<g>
			
				<rect x="672.807" y="250.889" transform="matrix(0.032 -0.9995 0.9995 0.032 399.6023 974.3986)" fill="#2010C2" width="60.038" height="60.038"/>
		</g>
		<g>
			
				<rect x="792.821" y="254.726" transform="matrix(0.032 -0.9995 0.9995 0.032 511.9463 1098.0656)" fill="#2010C2" width="60.038" height="60.038"/>
		</g>
		<g>
			
				<rect x="852.828" y="256.645" transform="matrix(0.032 -0.9995 0.9995 0.032 568.1183 1159.899)" fill="#2010C2" width="60.038" height="60.038"/>
		</g>
		<g>
			
				<rect x="912.835" y="258.563" transform="matrix(0.032 -0.9995 0.9995 0.032 624.2903 1221.7325)" fill="#2010C2" width="60.038" height="60.038"/>
		</g>
		<g>
			
				<rect x="972.841" y="260.482" transform="matrix(0.032 -0.9995 0.9995 0.032 680.4623 1283.5659)" fill="#2010C2" width="60.038" height="60.038"/>
		</g>
		<g>
			
				<rect x="1032.848" y="262.4" transform="matrix(0.032 -0.9995 0.9995 0.032 736.6343 1345.3994)" fill="#2010C2" width="60.038" height="60.038"/>
		</g>
		<g>
			
				<rect x="730.895" y="312.815" transform="matrix(0.032 -0.9995 0.9995 0.032 393.9408 1092.4041)" fill="#2010C2" width="60.038" height="60.038"/>
		</g>
		<g>
			
				<rect x="670.888" y="310.896" transform="matrix(0.032 -0.9995 0.9995 0.032 337.7688 1030.5706)" fill="#2010C2" width="60.038" height="60.038"/>
		</g>
		<g>
			
				<rect x="610.881" y="308.978" transform="matrix(0.032 -0.9995 0.9995 0.032 281.5969 968.7371)" fill="#2010C2" width="60.038" height="60.038"/>
		</g>
		<g>
			
				<rect x="790.902" y="314.733" transform="matrix(0.032 -0.9995 0.9995 0.032 450.1128 1154.2375)" fill="#2010C2" width="60.038" height="60.038"/>
		</g>
		<g>
			
				<rect x="850.909" y="316.652" transform="matrix(0.032 -0.9995 0.9995 0.032 506.2848 1216.071)" fill="#2010C2" width="60.038" height="60.038"/>
		</g>
		<g>
			
				<rect x="910.916" y="318.57" transform="matrix(0.032 -0.9995 0.9995 0.032 562.4568 1277.9044)" fill="#2010C2" width="60.038" height="60.038"/>
		</g>
		<g>
			
				<rect x="970.923" y="320.489" transform="matrix(0.032 -0.9995 0.9995 0.032 618.6288 1339.7379)" fill="#2010C2" width="60.038" height="60.038"/>
		</g>
		<g>
			
				<rect x="1030.93" y="322.407" transform="matrix(0.032 -0.9995 0.9995 0.032 674.8008 1401.5714)" fill="#2010C2" width="60.038" height="60.038"/>
		</g>
		<g>
			
				<rect x="728.977" y="372.822" transform="matrix(0.032 -0.9995 0.9995 0.032 332.1074 1148.576)" fill="#2010C2" width="60.038" height="60.038"/>
		</g>
		<g>
			
				<rect x="668.97" y="370.903" transform="matrix(0.032 -0.9995 0.9995 0.032 275.9354 1086.7426)" fill="#2010C2" width="60.038" height="60.038"/>
		</g>
		<g>
			
				<rect x="608.963" y="368.985" transform="matrix(0.032 -0.9995 0.9995 0.032 219.7634 1024.9091)" fill="#2010C2" width="60.038" height="60.038"/>
		</g>
		<g>
			
				<rect x="788.984" y="374.74" transform="matrix(0.032 -0.9995 0.9995 0.032 388.2793 1210.4095)" fill="#2010C2" width="60.038" height="60.038"/>
		</g>
		<g>
			
				<rect x="848.991" y="376.659" transform="matrix(0.032 -0.9995 0.9995 0.032 444.4513 1272.243)" fill="#2010C2" width="60.038" height="60.038"/>
		</g>
		<g>
			
				<rect x="908.998" y="378.577" transform="matrix(0.032 -0.9995 0.9995 0.032 500.6233 1334.0764)" fill="#2010C2" width="60.038" height="60.038"/>
		</g>
		<g>
			
				<rect x="969.005" y="380.496" transform="matrix(0.032 -0.9995 0.9995 0.032 556.7953 1395.9099)" fill="#2010C2" width="60.038" height="60.038"/>
		</g>
		<g>
			
				<rect x="1029.011" y="382.414" transform="matrix(0.032 -0.9995 0.9995 0.032 612.9673 1457.7434)" fill="#2010C2" width="60.038" height="60.038"/>
		</g>
		<g>
			
				<rect x="1089.018" y="384.333" transform="matrix(0.032 -0.9995 0.9995 0.032 669.1393 1519.5769)" fill="#2010C2" width="60.038" height="60.038"/>
		</g>
		<g>
			
				<rect x="727.058" y="432.829" transform="matrix(0.032 -0.9995 0.9995 0.032 270.2739 1204.748)" fill="#2010C2" width="60.038" height="60.038"/>
		</g>
		<g>
			
				<rect x="667.051" y="430.91" transform="matrix(0.032 -0.9995 0.9995 0.032 214.1019 1142.9146)" fill="#2010C2" width="60.038" height="60.038"/>
		</g>
		<g>
			
				<rect x="787.065" y="434.747" transform="matrix(0.032 -0.9995 0.9995 0.032 326.4459 1266.5815)" fill="#2010C2" width="60.038" height="60.038"/>
		</g>
		<g>
			
				<rect x="847.072" y="436.666" transform="matrix(0.032 -0.9995 0.9995 0.032 382.6179 1328.4149)" fill="#2010C2" width="60.038" height="60.038"/>
		</g>
		<g>
			
				<rect x="907.079" y="438.584" transform="matrix(0.032 -0.9995 0.9995 0.032 438.7898 1390.2484)" fill="#2010C2" width="60.038" height="60.038"/>
		</g>
		<g>
			
				<rect x="967.086" y="440.503" transform="matrix(0.032 -0.9995 0.9995 0.032 494.9618 1452.0819)" fill="#2010C2" width="60.038" height="60.038"/>
		</g>
		<g>
			
				<rect x="1027.093" y="442.421" transform="matrix(0.032 -0.9995 0.9995 0.032 551.1338 1513.9154)" fill="#2010C2" width="60.038" height="60.038"/>
		</g>
		<g>
			
				<rect x="1087.1" y="444.34" transform="matrix(0.032 -0.9995 0.9995 0.032 607.3058 1575.7489)" fill="#2010C2" width="60.038" height="60.038"/>
		</g>
		<g>
			
				<rect x="725.14" y="492.836" transform="matrix(0.032 -0.9995 0.9995 0.032 208.4404 1260.92)" fill="#2010C2" width="60.038" height="60.038"/>
		</g>
		<g>
			
				<rect x="665.133" y="490.917" transform="matrix(0.032 -0.9995 0.9995 0.032 152.2684 1199.0865)" fill="#2010C2" width="60.038" height="60.038"/>
		</g>
		<g>
			
				<rect x="785.147" y="494.754" transform="matrix(0.032 -0.9995 0.9995 0.032 264.6124 1322.7535)" fill="#2010C2" width="60.038" height="60.038"/>
		</g>
		<g>
			
				<rect x="845.154" y="496.673" transform="matrix(0.032 -0.9995 0.9995 0.032 320.7844 1384.5869)" fill="#2010C2" width="60.038" height="60.038"/>
		</g>
		<g>
			
				<rect x="905.161" y="498.591" transform="matrix(0.032 -0.9995 0.9995 0.032 376.9564 1446.4204)" fill="#2010C2" width="60.038" height="60.038"/>
		</g>
		<g>
			
				<rect x="965.168" y="500.51" transform="matrix(0.032 -0.9995 0.9995 0.032 433.1283 1508.2539)" fill="#2010C2" width="60.038" height="60.038"/>
		</g>
		<g>
			
				<rect x="1025.175" y="502.428" transform="matrix(0.032 -0.9995 0.9995 0.032 489.3003 1570.0874)" fill="#2010C2" width="60.038" height="60.038"/>
		</g>
		<g>
			
				<rect x="1085.182" y="504.347" transform="matrix(0.032 -0.9995 0.9995 0.032 545.4723 1631.9209)" fill="#2010C2" width="60.038" height="60.038"/>
		</g>
		<g>
			
				<rect x="723.221" y="552.843" transform="matrix(0.032 -0.9995 0.9995 0.032 146.6069 1317.092)" fill="#2010C2" width="60.038" height="60.038"/>
		</g>
		<g>
			
				<rect x="663.214" y="550.924" transform="matrix(0.032 -0.9995 0.9995 0.032 90.4349 1255.2585)" fill="#2010C2" width="60.038" height="60.038"/>
		</g>
		<g>
			
				<rect x="783.228" y="554.761" transform="matrix(0.032 -0.9995 0.9995 0.032 202.7789 1378.9254)" fill="#2010C2" width="60.038" height="60.038"/>
		</g>
		<g>
			
				<rect x="843.235" y="556.68" transform="matrix(0.032 -0.9995 0.9995 0.032 258.9509 1440.7589)" fill="#2010C2" width="60.038" height="60.038"/>
		</g>
		<g>
			
				<rect x="903.242" y="558.598" transform="matrix(0.032 -0.9995 0.9995 0.032 315.1229 1502.5924)" fill="#2010C2" width="60.038" height="60.038"/>
		</g>
		<g>
			
				<rect x="963.249" y="560.517" transform="matrix(0.032 -0.9995 0.9995 0.032 371.2949 1564.4259)" fill="#2010C2" width="60.038" height="60.038"/>
		</g>
		<g>
			
				<rect x="1023.256" y="562.435" transform="matrix(0.032 -0.9995 0.9995 0.032 427.4669 1626.2594)" fill="#2010C2" width="60.038" height="60.038"/>
		</g>
		<g>
			
				<rect x="721.303" y="612.85" transform="matrix(0.032 -0.9995 0.9995 0.032 84.7734 1373.264)" fill="#2010C2" width="60.038" height="60.038"/>
		</g>
		<g>
			
				<rect x="661.296" y="610.931" transform="matrix(0.032 -0.9995 0.9995 0.032 28.6014 1311.4305)" fill="#2010C2" width="60.038" height="60.038"/>
		</g>
		<g>
			
				<rect x="601.289" y="609.013" transform="matrix(0.032 -0.9995 0.9995 0.032 -27.5706 1249.597)" fill="#2010C2" width="60.038" height="60.038"/>
		</g>
		<g>
			
				<rect x="781.31" y="614.768" transform="matrix(0.032 -0.9995 0.9995 0.032 140.9454 1435.0974)" fill="#2010C2" width="60.038" height="60.038"/>
		</g>
		<g>
			
				<rect x="841.317" y="616.687" transform="matrix(0.032 -0.9995 0.9995 0.032 197.1174 1496.9309)" fill="#2010C2" width="60.038" height="60.038"/>
		</g>
		<g>
			
				<rect x="901.324" y="618.605" transform="matrix(0.032 -0.9995 0.9995 0.032 253.2894 1558.7644)" fill="#2010C2" width="60.038" height="60.038"/>
		</g>
		<g>
			
				<rect x="961.331" y="620.524" transform="matrix(0.032 -0.9995 0.9995 0.032 309.4614 1620.5979)" fill="#2010C2" width="60.038" height="60.038"/>
		</g>
		<g>
			
				<rect x="1021.338" y="622.442" transform="matrix(0.032 -0.9995 0.9995 0.032 365.6334 1682.4314)" fill="#2010C2" width="60.038" height="60.038"/>
		</g>
		<g>
			
				<rect x="719.384" y="672.857" transform="matrix(0.032 -0.9995 0.9995 0.032 22.9399 1429.4359)" fill="#2010C2" width="60.038" height="60.038"/>
		</g>
		<g>
			
				<rect x="659.377" y="670.938" transform="matrix(0.032 -0.9995 0.9995 0.032 -33.232 1367.6025)" fill="#2010C2" width="60.038" height="60.038"/>
		</g>
		<g>
			
				<rect x="599.37" y="669.02" transform="matrix(0.032 -0.9995 0.9995 0.032 -89.404 1305.769)" fill="#2010C2" width="60.038" height="60.038"/>
		</g>
		<g>
			
				<rect x="779.391" y="674.775" transform="matrix(0.032 -0.9995 0.9995 0.032 79.1119 1491.2694)" fill="#2010C2" width="60.038" height="60.038"/>
		</g>
		<g>
			
				<rect x="839.398" y="676.694" transform="matrix(0.032 -0.9995 0.9995 0.032 135.2839 1553.1029)" fill="#2010C2" width="60.038" height="60.038"/>
		</g>
		<g>
			
				<rect x="899.405" y="678.612" transform="matrix(0.032 -0.9995 0.9995 0.032 191.4559 1614.9364)" fill="#2010C2" width="60.038" height="60.038"/>
		</g>
		<g>
			
				<rect x="959.412" y="680.531" transform="matrix(0.032 -0.9995 0.9995 0.032 247.6279 1676.7699)" fill="#2010C2" width="60.038" height="60.038"/>
		</g>
		<g>
			
				<rect x="717.466" y="732.864" transform="matrix(0.032 -0.9995 0.9995 0.032 -38.8935 1485.6079)" fill="#2010C2" width="60.038" height="60.038"/>
		</g>
		<g>
			
				<rect x="657.459" y="730.945" transform="matrix(0.032 -0.9995 0.9995 0.032 -95.0655 1423.7745)" fill="#2010C2" width="60.038" height="60.038"/>
		</g>
		<g>
			
				<rect x="597.452" y="729.027" transform="matrix(0.032 -0.9995 0.9995 0.032 -151.2375 1361.941)" fill="#2010C2" width="60.038" height="60.038"/>
		</g>
		<g>
			
				<rect x="537.445" y="727.108" transform="matrix(0.032 -0.9995 0.9995 0.032 -207.4095 1300.1075)" fill="#2010C2" width="60.038" height="60.038"/>
		</g>
		<g>
			
				<rect x="777.473" y="734.782" transform="matrix(0.032 -0.9995 0.9995 0.032 17.2785 1547.4414)" fill="#2010C2" width="60.038" height="60.038"/>
		</g>
		<g>
			
				<rect x="837.48" y="736.701" transform="matrix(0.032 -0.9995 0.9995 0.032 73.4504 1609.2749)" fill="#2010C2" width="60.038" height="60.038"/>
		</g>
		<g>
			
				<rect x="897.487" y="738.619" transform="matrix(0.032 -0.9995 0.9995 0.032 129.6224 1671.1084)" fill="#2010C2" width="60.038" height="60.038"/>
		</g>
		<g>
			
				<rect x="715.547" y="792.871" transform="matrix(0.032 -0.9995 0.9995 0.032 -100.727 1541.7799)" fill="#2010C2" width="60.038" height="60.038"/>
		</g>
		<g>
			
				<rect x="655.54" y="790.952" transform="matrix(0.032 -0.9995 0.9995 0.032 -156.899 1479.9464)" fill="#2010C2" width="60.038" height="60.038"/>
		</g>
		<g>
			
				<rect x="595.534" y="789.034" transform="matrix(0.032 -0.9995 0.9995 0.032 -213.071 1418.113)" fill="#2010C2" width="60.038" height="60.038"/>
		</g>
		<g>
			
				<rect x="775.554" y="794.789" transform="matrix(0.032 -0.9995 0.9995 0.032 -44.555 1603.6134)" fill="#2010C2" width="60.038" height="60.038"/>
		</g>
		<g>
			
				<rect x="835.561" y="796.708" transform="matrix(0.032 -0.9995 0.9995 0.032 11.617 1665.4469)" fill="#2010C2" width="60.038" height="60.038"/>
		</g>
		<g>
			
				<rect x="713.629" y="852.878" transform="matrix(0.032 -0.9995 0.9995 0.032 -162.5605 1597.9519)" fill="#2010C2" width="60.038" height="60.038"/>
		</g>
		<g>
			
				<rect x="653.622" y="850.959" transform="matrix(0.032 -0.9995 0.9995 0.032 -218.7325 1536.1184)" fill="#2010C2" width="60.038" height="60.038"/>
		</g>
		<g>
			
				<rect x="773.636" y="854.796" transform="matrix(0.032 -0.9995 0.9995 0.032 -106.3885 1659.7854)" fill="#2010C2" width="60.038" height="60.038"/>
		</g>
		<g>
			
				<rect x="651.704" y="910.966" transform="matrix(0.032 -0.9995 0.9995 0.032 -280.566 1592.2904)" fill="#2010C2" width="60.038" height="60.038"/>
		</g>
		<g>
			
				<rect x="178.632" y="235.09" transform="matrix(0.032 -0.9995 0.9995 0.032 -62.9905 465.1817)" fill="#2010C2" width="60.038" height="60.038"/>
		</g>
		<g>
			
				<rect x="118.625" y="233.172" transform="matrix(0.032 -0.9995 0.9995 0.032 -119.1625 403.3482)" fill="#2010C2" width="60.038" height="60.038"/>
		</g>
		<g>
			
				<rect x="238.639" y="237.009" transform="matrix(0.032 -0.9995 0.9995 0.032 -6.8185 527.0151)" fill="#2010C2" width="60.038" height="60.038"/>
		</g>
		<g>
			
				<rect x="298.646" y="238.927" transform="matrix(0.032 -0.9995 0.9995 0.032 49.3534 588.8486)" fill="#2010C2" width="60.038" height="60.038"/>
		</g>
		<g>
			
				<rect x="358.653" y="240.846" transform="matrix(0.032 -0.9995 0.9995 0.032 105.5254 650.6821)" fill="#2010C2" width="60.038" height="60.038"/>
		</g>
		<g>
			
				<rect x="418.66" y="242.764" transform="matrix(0.032 -0.9995 0.9995 0.032 161.6974 712.5156)" fill="#2010C2" width="60.038" height="60.038"/>
		</g>
		<g>
			
				<rect x="478.667" y="244.683" transform="matrix(0.032 -0.9995 0.9995 0.032 217.8694 774.3491)" fill="#2010C2" width="60.038" height="60.038"/>
		</g>
		<g>
			
				<rect x="176.713" y="295.097" transform="matrix(0.032 -0.9995 0.9995 0.032 -124.824 521.3536)" fill="#2010C2" width="60.038" height="60.038"/>
		</g>
		<g>
			
				<rect x="116.706" y="293.179" transform="matrix(0.032 -0.9995 0.9995 0.032 -180.996 459.5202)" fill="#2010C2" width="60.038" height="60.038"/>
		</g>
		<g>
			
				<rect x="236.72" y="297.016" transform="matrix(0.032 -0.9995 0.9995 0.032 -68.652 583.1871)" fill="#2010C2" width="60.038" height="60.038"/>
		</g>
		<g>
			
				<rect x="296.727" y="298.934" transform="matrix(0.032 -0.9995 0.9995 0.032 -12.48 645.0206)" fill="#2010C2" width="60.038" height="60.038"/>
		</g>
		<g>
			
				<rect x="356.734" y="300.853" transform="matrix(0.032 -0.9995 0.9995 0.032 43.692 706.8541)" fill="#2010C2" width="60.038" height="60.038"/>
		</g>
		<g>
			
				<rect x="416.741" y="302.771" transform="matrix(0.032 -0.9995 0.9995 0.032 99.8639 768.6876)" fill="#2010C2" width="60.038" height="60.038"/>
		</g>
		<g>
			
				<rect x="476.748" y="304.69" transform="matrix(0.032 -0.9995 0.9995 0.032 156.0359 830.5211)" fill="#2010C2" width="60.038" height="60.038"/>
		</g>
		<g>
			
				<rect x="174.795" y="355.104" transform="matrix(0.032 -0.9995 0.9995 0.032 -186.6575 577.5256)" fill="#2010C2" width="60.038" height="60.038"/>
		</g>
		<g>
			
				<rect x="114.788" y="353.186" transform="matrix(0.032 -0.9995 0.9995 0.032 -242.8295 515.6921)" fill="#2010C2" width="60.038" height="60.038"/>
		</g>
		<g>
			
				<rect x="234.802" y="357.023" transform="matrix(0.032 -0.9995 0.9995 0.032 -130.4855 639.3591)" fill="#2010C2" width="60.038" height="60.038"/>
		</g>
		<g>
			
				<rect x="294.809" y="358.941" transform="matrix(0.032 -0.9995 0.9995 0.032 -74.3135 701.1926)" fill="#2010C2" width="60.038" height="60.038"/>
		</g>
		<g>
			
				<rect x="354.816" y="360.86" transform="matrix(0.032 -0.9995 0.9995 0.032 -18.1415 763.0261)" fill="#2010C2" width="60.038" height="60.038"/>
		</g>
		<g>
			
				<rect x="414.823" y="362.778" transform="matrix(0.032 -0.9995 0.9995 0.032 38.0305 824.8596)" fill="#2010C2" width="60.038" height="60.038"/>
		</g>
		<g>
			
				<rect x="54.781" y="351.267" transform="matrix(0.032 -0.9995 0.9995 0.032 -299.0015 453.8587)" fill="#2010C2" width="60.038" height="60.038"/>
		</g>
		<g>
			
				<rect x="173.759" y="415.139" transform="matrix(0.032 -0.9995 0.9995 0.032 -247.6649 634.6069)" fill="#2010C2" width="60.038" height="60.038"/>
		</g>
		<g>
			
				<rect x="113.311" y="413.207" transform="matrix(0.032 -0.9995 0.9995 0.032 -304.2499 572.3188)" fill="#2010C2" width="60.038" height="60.038"/>
		</g>
		<g>
			
				<rect x="234.207" y="417.072" transform="matrix(0.032 -0.9995 0.9995 0.032 -191.0799 696.8951)" fill="#2010C2" width="60.038" height="60.038"/>
		</g>
		<g>
			
				<rect x="294.655" y="419.005" transform="matrix(0.032 -0.9995 0.9995 0.032 -134.4949 759.1832)" fill="#2010C2" width="60.038" height="60.038"/>
		</g>
		<g>
			
				<rect x="355.103" y="420.937" transform="matrix(0.032 -0.9995 0.9995 0.032 -77.9099 821.4714)" fill="#2010C2" width="60.038" height="60.038"/>
		</g>
		<g>
			
				<rect x="415.552" y="422.87" transform="matrix(0.032 -0.9995 0.9995 0.032 -21.3248 883.7595)" fill="#2010C2" width="60.038" height="60.038"/>
		</g>
		<g>
			
				<rect x="476" y="424.802" transform="matrix(0.032 -0.9995 0.9995 0.032 35.2602 946.0477)" fill="#2010C2" width="60.038" height="60.038"/>
		</g>
		<g>
			
				<rect x="536.448" y="426.735" transform="matrix(0.032 -0.9995 0.9995 0.032 91.8452 1008.3358)" fill="#2010C2" width="60.038" height="60.038"/>
		</g>
		<g>
			
				<rect x="52.862" y="411.274" transform="matrix(0.032 -0.9995 0.9995 0.032 -360.835 510.0307)" fill="#2010C2" width="60.038" height="60.038"/>
		</g>
		<g>
			
				<rect x="171.84" y="475.146" transform="matrix(0.032 -0.9995 0.9995 0.032 -309.4984 690.7789)" fill="#2010C2" width="60.038" height="60.038"/>
		</g>
		<g>
			
				<rect x="111.392" y="473.214" transform="matrix(0.032 -0.9995 0.9995 0.032 -366.0834 628.4908)" fill="#2010C2" width="60.038" height="60.038"/>
		</g>
		<g>
			
				<rect x="232.288" y="477.079" transform="matrix(0.032 -0.9995 0.9995 0.032 -252.9134 753.0671)" fill="#2010C2" width="60.038" height="60.038"/>
		</g>
		<g>
			
				<rect x="292.737" y="479.012" transform="matrix(0.032 -0.9995 0.9995 0.032 -196.3284 815.3552)" fill="#2010C2" width="60.038" height="60.038"/>
		</g>
		<g>
			
				<rect x="353.185" y="480.944" transform="matrix(0.032 -0.9995 0.9995 0.032 -139.7433 877.6434)" fill="#2010C2" width="60.038" height="60.038"/>
		</g>
		<g>
			
				<rect x="413.633" y="482.877" transform="matrix(0.032 -0.9995 0.9995 0.032 -83.1583 939.9315)" fill="#2010C2" width="60.038" height="60.038"/>
		</g>
		<g>
			
				<rect x="474.081" y="484.809" transform="matrix(0.032 -0.9995 0.9995 0.032 -26.5733 1002.2196)" fill="#2010C2" width="60.038" height="60.038"/>
		</g>
		<g>
			
				<rect x="534.529" y="486.742" transform="matrix(0.032 -0.9995 0.9995 0.032 30.0117 1064.5078)" fill="#2010C2" width="60.038" height="60.038"/>
		</g>
		<g>
			
				<rect x="50.944" y="471.281" transform="matrix(0.032 -0.9995 0.9995 0.032 -422.6684 566.2026)" fill="#2010C2" width="60.038" height="60.038"/>
		</g>
		<g>
			
				<rect x="169.922" y="535.153" transform="matrix(0.032 -0.9995 0.9995 0.032 -371.3319 746.9509)" fill="#2010C2" width="60.038" height="60.038"/>
		</g>
		<g>
			
				<rect x="109.474" y="533.221" transform="matrix(0.032 -0.9995 0.9995 0.032 -427.9169 684.6628)" fill="#2010C2" width="60.038" height="60.038"/>
		</g>
		<g>
			
				<rect x="230.37" y="537.086" transform="matrix(0.032 -0.9995 0.9995 0.032 -314.7469 809.2391)" fill="#2010C2" width="60.038" height="60.038"/>
		</g>
		<g>
			
				<rect x="290.818" y="539.018" transform="matrix(0.032 -0.9995 0.9995 0.032 -258.1618 871.5272)" fill="#2010C2" width="60.038" height="60.038"/>
		</g>
		<g>
			
				<rect x="351.266" y="540.951" transform="matrix(0.032 -0.9995 0.9995 0.032 -201.5768 933.8154)" fill="#2010C2" width="60.038" height="60.038"/>
		</g>
		<g>
			
				<rect x="411.715" y="542.884" transform="matrix(0.032 -0.9995 0.9995 0.032 -144.9918 996.1035)" fill="#2010C2" width="60.038" height="60.038"/>
		</g>
		<g>
			
				<rect x="472.163" y="544.816" transform="matrix(0.032 -0.9995 0.9995 0.032 -88.4068 1058.3916)" fill="#2010C2" width="60.038" height="60.038"/>
		</g>
		<g>
			
				<rect x="168.003" y="595.16" transform="matrix(0.032 -0.9995 0.9995 0.032 -433.1653 803.1229)" fill="#2010C2" width="60.038" height="60.038"/>
		</g>
		<g>
			
				<rect x="107.555" y="593.228" transform="matrix(0.032 -0.9995 0.9995 0.032 -489.7504 740.8348)" fill="#2010C2" width="60.038" height="60.038"/>
		</g>
		<g>
			
				<rect x="228.452" y="597.093" transform="matrix(0.032 -0.9995 0.9995 0.032 -376.5804 865.4111)" fill="#2010C2" width="60.038" height="60.038"/>
		</g>
		<g>
			
				<rect x="288.9" y="599.025" transform="matrix(0.032 -0.9995 0.9995 0.032 -319.9953 927.6992)" fill="#2010C2" width="60.038" height="60.038"/>
		</g>
		<g>
			
				<rect x="349.348" y="600.958" transform="matrix(0.032 -0.9995 0.9995 0.032 -263.4103 989.9873)" fill="#2010C2" width="60.038" height="60.038"/>
		</g>
		<g>
			
				<rect x="409.796" y="602.891" transform="matrix(0.032 -0.9995 0.9995 0.032 -206.8253 1052.2755)" fill="#2010C2" width="60.038" height="60.038"/>
		</g>
		<g>
			
				<rect x="470.244" y="604.823" transform="matrix(0.032 -0.9995 0.9995 0.032 -150.2403 1114.5636)" fill="#2010C2" width="60.038" height="60.038"/>
		</g>
		<g>
			
				<rect x="166.085" y="655.167" transform="matrix(0.032 -0.9995 0.9995 0.032 -494.9988 859.2949)" fill="#2010C2" width="60.038" height="60.038"/>
		</g>
		<g>
			
				<rect x="226.533" y="657.1" transform="matrix(0.032 -0.9995 0.9995 0.032 -438.4138 921.5831)" fill="#2010C2" width="60.038" height="60.038"/>
		</g>
		<g>
			
				<rect x="286.981" y="659.032" transform="matrix(0.032 -0.9995 0.9995 0.032 -381.8288 983.8712)" fill="#2010C2" width="60.038" height="60.038"/>
		</g>
		<g>
			
				<rect x="347.429" y="660.965" transform="matrix(0.032 -0.9995 0.9995 0.032 -325.2438 1046.1593)" fill="#2010C2" width="60.038" height="60.038"/>
		</g>
		<g>
			
				<rect x="407.878" y="662.898" transform="matrix(0.032 -0.9995 0.9995 0.032 -268.6588 1108.4475)" fill="#2010C2" width="60.038" height="60.038"/>
		</g>
		<g>
			
				<rect x="224.615" y="717.107" transform="matrix(0.032 -0.9995 0.9995 0.032 -500.2473 977.755)" fill="#2010C2" width="60.038" height="60.038"/>
		</g>
		<g>
			
				<rect x="285.063" y="719.039" transform="matrix(0.032 -0.9995 0.9995 0.032 -443.6623 1040.0432)" fill="#2010C2" width="60.038" height="60.038"/>
		</g>
		<g>
			
				<rect x="345.511" y="720.972" transform="matrix(0.032 -0.9995 0.9995 0.032 -387.0773 1102.3313)" fill="#2010C2" width="60.038" height="60.038"/>
		</g>
		<g>
			
				<rect x="405.959" y="722.904" transform="matrix(0.032 -0.9995 0.9995 0.032 -330.4922 1164.6195)" fill="#2010C2" width="60.038" height="60.038"/>
		</g>
		<g>
			
				<rect x="464.93" y="784.858" transform="matrix(0.032 -0.9995 0.9995 0.032 -335.3277 1283.5342)" fill="#2010C2" width="60.038" height="60.038"/>
		</g>
		<g>
			
				<rect x="283.144" y="779.046" transform="matrix(0.032 -0.9995 0.9995 0.032 -505.4958 1096.2152)" fill="#2010C2" width="60.038" height="60.038"/>
		</g>
		<g>
			
				<rect x="343.593" y="780.979" transform="matrix(0.032 -0.9995 0.9995 0.032 -448.9107 1158.5033)" fill="#2010C2" width="60.038" height="60.038"/>
		</g>
		<g>
			
				<rect x="404.041" y="782.911" transform="matrix(0.032 -0.9995 0.9995 0.032 -392.3257 1220.7914)" fill="#2010C2" width="60.038" height="60.038"/>
		</g>
		<g>
			
				<rect x="463.012" y="844.865" transform="matrix(0.032 -0.9995 0.9995 0.032 -397.1612 1339.7062)" fill="#2010C2" width="60.038" height="60.038"/>
		</g>
		<g>
			
				<rect x="523.019" y="846.784" transform="matrix(0.032 -0.9995 0.9995 0.032 -340.9892 1401.5397)" fill="#2010C2" width="60.038" height="60.038"/>
		</g>
		<g>
			
				<rect x="341.674" y="840.986" transform="matrix(0.032 -0.9995 0.9995 0.032 -510.7442 1214.6753)" fill="#2010C2" width="60.038" height="60.038"/>
		</g>
		<g>
			
				<rect x="402.122" y="842.918" transform="matrix(0.032 -0.9995 0.9995 0.032 -454.1592 1276.9634)" fill="#2010C2" width="60.038" height="60.038"/>
		</g>
		<g>
			
				<rect x="461.093" y="904.872" transform="matrix(0.032 -0.9995 0.9995 0.032 -458.9946 1395.8782)" fill="#2010C2" width="60.038" height="60.038"/>
		</g>
		<g>
			
				<rect x="400.204" y="902.925" transform="matrix(0.032 -0.9995 0.9995 0.032 -515.9927 1333.1354)" fill="#2010C2" width="60.038" height="60.038"/>
		</g>
		<g>
			
				<rect x="459.175" y="964.879" transform="matrix(0.032 -0.9995 0.9995 0.032 -520.8281 1452.0502)" fill="#2010C2" width="60.038" height="60.038"/>
		</g>
	</g>
</g>
</svg>
